<svg xmlns="http://www.w3.org/2000/svg" xmlns:xlink="http://www.w3.org/1999/xlink" width="500" zoomAndPan="magnify" viewBox="0 0 375 374.999991" height="500" preserveAspectRatio="xMidYMid meet" version="1.0"><defs><g/><clipPath id="4d478e79a2"><path d="M 15.640625 15.882812 L 350.761719 15.882812 L 350.761719 351 L 15.640625 351 Z M 15.640625 15.882812 " clip-rule="nonzero"/></clipPath><clipPath id="9ecc7d3f86"><path d="M 183.199219 15.882812 C 90.660156 15.882812 15.640625 90.902344 15.640625 183.441406 C 15.640625 275.980469 90.660156 351 183.199219 351 C 275.742188 351 350.761719 275.980469 350.761719 183.441406 C 350.761719 90.902344 275.742188 15.882812 183.199219 15.882812 Z M 183.199219 15.882812 " clip-rule="nonzero"/></clipPath><clipPath id="cf4ecc049e"><path d="M 129.285156 66.808594 L 237 66.808594 L 237 171.058594 L 129.285156 171.058594 Z M 129.285156 66.808594 " clip-rule="nonzero"/></clipPath></defs><rect x="-37.5" width="450" fill="#ffffff" y="-37.499999" height="449.999989" fill-opacity="1"/><rect x="-37.5" width="450" fill="#ffffff" y="-37.499999" height="449.999989" fill-opacity="1"/><g clip-path="url(#4d478e79a2)"><g clip-path="url(#9ecc7d3f86)"><path fill="#000000" d="M 15.640625 15.882812 L 350.761719 15.882812 L 350.761719 351 L 15.640625 351 Z M 15.640625 15.882812 " fill-opacity="1" fill-rule="nonzero"/></g></g><g fill="#ff9a00" fill-opacity="1"><g transform="translate(124.351967, 287.185366)"><g><path d="M 17.53125 -5.886719 L 17.53125 -10.945312 C 17.53125 -11.863281 17.269531 -12.691406 16.789062 -13.34375 C 16.3125 -14 15.613281 -14.523438 14.785156 -14.828125 C 15.699219 -15.089844 16.398438 -15.570312 16.878906 -16.265625 C 17.3125 -16.921875 17.53125 -17.75 17.53125 -18.667969 L 17.53125 -23.726562 C 17.53125 -24.554688 17.402344 -25.296875 17.097656 -26.035156 C 16.789062 -26.777344 16.355469 -27.386719 15.832031 -27.957031 C 15.265625 -28.480469 14.652344 -28.914062 13.914062 -29.21875 C 13.171875 -29.527344 12.429688 -29.65625 11.601562 -29.65625 L 3.53125 -29.65625 C 2.53125 -29.65625 1.746094 -28.871094 1.746094 -27.867188 L 1.746094 -1.789062 C 1.746094 -0.785156 2.53125 0 3.53125 0 L 11.601562 0 C 12.429688 0 13.171875 -0.175781 13.914062 -0.480469 C 14.652344 -0.785156 15.265625 -1.175781 15.832031 -1.746094 C 16.355469 -2.269531 16.789062 -2.878906 17.097656 -3.621094 C 17.402344 -4.316406 17.53125 -5.058594 17.53125 -5.886719 Z M 7.675781 -5.886719 L 7.675781 -11.820312 L 11.601562 -11.820312 L 11.601562 -5.886719 Z M 7.675781 -17.792969 L 7.675781 -23.726562 L 11.601562 -23.726562 L 11.601562 -17.792969 Z M 7.675781 -17.792969 "/></g></g></g><g fill="#ff9a00" fill-opacity="1"><g transform="translate(145.849907, 287.185366)"><g><path d="M 17.53125 -5.886719 L 17.53125 -29.65625 L 11.601562 -29.65625 L 11.601562 -5.886719 L 7.675781 -5.886719 L 7.675781 -29.65625 L 1.746094 -29.65625 L 1.746094 -5.886719 C 1.746094 -5.058594 1.917969 -4.316406 2.222656 -3.621094 C 2.53125 -2.878906 2.921875 -2.269531 3.488281 -1.746094 C 4.011719 -1.175781 4.621094 -0.785156 5.363281 -0.480469 C 6.105469 -0.175781 6.847656 0 7.675781 0 L 11.601562 0 C 12.429688 0 13.171875 -0.175781 13.914062 -0.480469 C 14.652344 -0.785156 15.265625 -1.175781 15.832031 -1.746094 C 16.355469 -2.269531 16.789062 -2.878906 17.097656 -3.621094 C 17.402344 -4.316406 17.53125 -5.058594 17.53125 -5.886719 Z M 17.53125 -5.886719 "/></g></g></g><g fill="#ff9a00" fill-opacity="1"><g transform="translate(167.783901, 287.185366)"><g><path d="M 17.359375 -12.253906 C 17.097656 -12.910156 16.703125 -13.519531 16.222656 -14.085938 C 16.574219 -14.480469 16.835938 -14.960938 17.097656 -15.484375 C 17.402344 -16.222656 17.53125 -16.964844 17.53125 -17.792969 L 17.53125 -23.726562 C 17.53125 -24.554688 17.402344 -25.296875 17.097656 -26.035156 C 16.789062 -26.777344 16.355469 -27.386719 15.832031 -27.957031 C 15.265625 -28.480469 14.652344 -28.914062 13.914062 -29.21875 C 13.171875 -29.527344 12.429688 -29.65625 11.601562 -29.65625 L 3.53125 -29.65625 C 2.53125 -29.65625 1.746094 -28.871094 1.746094 -27.867188 L 1.746094 0 L 7.675781 0 L 7.675781 -11.863281 L 10.207031 -11.863281 L 11.820312 -10.160156 L 11.820312 0 L 17.75 0 L 17.75 -10.160156 C 17.75 -10.902344 17.621094 -11.601562 17.359375 -12.253906 Z M 7.675781 -17.792969 L 7.675781 -23.726562 L 11.601562 -23.726562 L 11.601562 -17.792969 Z M 7.675781 -17.792969 "/></g></g></g><g fill="#ff9a00" fill-opacity="1"><g transform="translate(189.49987, 287.185366)"><g><path d="M 17.574219 -5.929688 L 17.574219 -17.792969 L 9.726562 -17.792969 L 9.726562 -11.863281 L 11.644531 -11.863281 L 11.644531 -5.929688 L 7.675781 -5.929688 L 7.675781 -23.726562 L 11.644531 -23.726562 L 11.644531 -19.800781 L 17.574219 -19.800781 L 17.574219 -23.726562 C 17.574219 -24.554688 17.445312 -25.296875 17.140625 -26.035156 C 16.835938 -26.777344 16.398438 -27.386719 15.875 -27.957031 C 15.308594 -28.480469 14.699219 -28.914062 13.957031 -29.21875 C 13.214844 -29.527344 12.472656 -29.65625 11.644531 -29.65625 L 7.675781 -29.65625 C 6.847656 -29.65625 6.105469 -29.527344 5.363281 -29.21875 C 4.621094 -28.914062 4.011719 -28.480469 3.488281 -27.957031 C 2.921875 -27.386719 2.53125 -26.777344 2.222656 -26.035156 C 1.917969 -25.296875 1.746094 -24.554688 1.746094 -23.726562 L 1.746094 -5.929688 C 1.746094 -5.101562 1.917969 -4.359375 2.222656 -3.621094 C 2.53125 -2.878906 2.921875 -2.269531 3.488281 -1.746094 C 4.011719 -1.175781 4.621094 -0.785156 5.363281 -0.480469 C 6.105469 -0.175781 6.847656 0 7.675781 0 L 11.644531 0 C 12.472656 0 13.214844 -0.175781 13.957031 -0.480469 C 14.699219 -0.785156 15.308594 -1.175781 15.875 -1.746094 C 16.398438 -2.269531 16.835938 -2.878906 17.140625 -3.621094 C 17.445312 -4.359375 17.574219 -5.101562 17.574219 -5.929688 Z M 17.574219 -5.929688 "/></g></g></g><g fill="#ff9a00" fill-opacity="1"><g transform="translate(211.47748, 287.185366)"><g><path d="M 15.699219 -5.929688 L 7.675781 -5.929688 L 7.675781 -11.863281 L 15.699219 -11.863281 L 15.699219 -17.792969 L 7.675781 -17.792969 L 7.675781 -23.726562 L 15.699219 -23.726562 L 15.699219 -29.65625 L 3.53125 -29.65625 C 2.53125 -29.65625 1.746094 -28.871094 1.746094 -27.867188 L 1.746094 -1.789062 C 1.746094 -0.785156 2.53125 0 3.53125 0 L 15.699219 0 Z M 15.699219 -5.929688 "/></g></g></g><g fill="#ff9a00" fill-opacity="1"><g transform="translate(231.580056, 287.185366)"><g><path d="M 17.359375 -12.253906 C 17.097656 -12.910156 16.703125 -13.519531 16.222656 -14.085938 C 16.574219 -14.480469 16.835938 -14.960938 17.097656 -15.484375 C 17.402344 -16.222656 17.53125 -16.964844 17.53125 -17.792969 L 17.53125 -23.726562 C 17.53125 -24.554688 17.402344 -25.296875 17.097656 -26.035156 C 16.789062 -26.777344 16.355469 -27.386719 15.832031 -27.957031 C 15.265625 -28.480469 14.652344 -28.914062 13.914062 -29.21875 C 13.171875 -29.527344 12.429688 -29.65625 11.601562 -29.65625 L 3.53125 -29.65625 C 2.53125 -29.65625 1.746094 -28.871094 1.746094 -27.867188 L 1.746094 0 L 7.675781 0 L 7.675781 -11.863281 L 10.207031 -11.863281 L 11.820312 -10.160156 L 11.820312 0 L 17.75 0 L 17.75 -10.160156 C 17.75 -10.902344 17.621094 -11.601562 17.359375 -12.253906 Z M 7.675781 -17.792969 L 7.675781 -23.726562 L 11.601562 -23.726562 L 11.601562 -17.792969 Z M 7.675781 -17.792969 "/></g></g></g><g clip-path="url(#cf4ecc049e)"><path fill="#ff9a00" d="M 228.898438 137.015625 C 233.339844 133.511719 236.28125 127.957031 236.28125 122.097656 C 236.28125 120.773438 235.160156 119.652344 233.835938 119.652344 C 232.332031 119.652344 230.832031 119.652344 229.328125 119.652344 C 229.328125 117.105469 229.328125 114.5625 229.328125 112.019531 C 230.390625 112.019531 231.457031 112.019531 232.519531 112.019531 C 233.832031 112.019531 234.976562 110.898438 234.964844 109.574219 C 234.769531 83.039062 207.558594 67.445312 183.671875 66.988281 C 174.59375 66.816406 165.640625 68.597656 157.304688 72.179688 C 156.082031 72.707031 155.832031 74.480469 156.425781 75.527344 C 157.144531 76.792969 158.566406 76.925781 159.773438 76.40625 C 181.507812 67.0625 212.65625 71.910156 225.53125 93.503906 C 228.027344 97.6875 229.542969 102.3125 229.957031 107.125 C 228.929688 107.125 227.910156 107.125 226.882812 107.125 C 217.460938 107.125 208.042969 107.125 198.621094 107.125 C 198.195312 107.125 197.765625 107.125 197.339844 107.125 C 181.632812 107.125 165.921875 107.125 150.214844 107.125 C 148.367188 107.125 146.519531 107.125 144.671875 107.125 C 142.894531 107.125 141.121094 107.125 139.347656 107.125 C 137.886719 107.125 136.425781 107.125 134.960938 107.125 C 135.714844 98.671875 139.90625 91.152344 146.074219 85.269531 C 148.355469 83.089844 144.894531 79.636719 142.613281 81.808594 C 134.941406 89.132812 130.046875 98.863281 129.945312 109.574219 C 129.933594 110.894531 131.078125 112.019531 132.390625 112.019531 C 133.894531 112.019531 135.398438 112.019531 136.898438 112.019531 C 136.898438 114.5625 136.898438 117.105469 136.898438 119.648438 C 135.398438 119.648438 133.894531 119.648438 132.390625 119.648438 C 131.070312 119.648438 129.945312 120.769531 129.945312 122.09375 C 129.945312 127.804688 132.742188 133.230469 137 136.746094 C 132.546875 137.734375 129.324219 141.808594 130.082031 146.621094 C 130.679688 150.414062 133.539062 152.941406 137.03125 153.695312 C 137.960938 161.589844 143.777344 168.464844 151.601562 170.445312 C 154.972656 171.300781 158.566406 171.058594 162.015625 171.058594 C 173.582031 171.058594 185.148438 171.058594 196.71875 171.058594 C 200.113281 171.058594 203.503906 171.058594 206.898438 171.058594 C 210.046875 171.058594 210.050781 166.164062 206.898438 166.164062 C 190.136719 166.164062 173.371094 166.339844 156.609375 166.164062 C 149.378906 166.09375 143.199219 160.925781 142.003906 153.960938 C 155.226562 154.046875 168.453125 153.941406 181.675781 153.941406 C 193.121094 153.941406 204.566406 153.941406 216.015625 153.941406 C 218.75 153.941406 221.484375 153.941406 224.222656 153.941406 C 223.710938 156.925781 222.277344 159.65625 220.136719 161.871094 C 217.949219 164.136719 221.40625 167.601562 223.597656 165.332031 C 226.773438 162.042969 228.808594 157.832031 229.238281 153.304688 C 234.648438 151.15625 237.0625 144.066406 232.589844 139.257812 C 231.515625 138.105469 230.257812 137.417969 228.898438 137.015625 Z M 141.792969 112.019531 C 149.957031 112.019531 158.125 112.019531 166.292969 112.019531 C 167.15625 112.019531 168.023438 112.019531 168.886719 112.019531 C 184.597656 112.019531 200.304688 112.019531 216.015625 112.019531 C 217.421875 112.019531 218.832031 112.019531 220.242188 112.019531 C 221.640625 112.019531 223.039062 112.019531 224.433594 112.019531 C 224.433594 114.5625 224.433594 117.105469 224.433594 119.652344 C 215.402344 119.652344 206.371094 119.652344 197.339844 119.652344 C 194.703125 119.652344 192.0625 119.652344 189.425781 119.652344 C 187.324219 119.652344 185.21875 119.652344 183.113281 119.652344 C 172.144531 119.652344 161.179688 119.652344 150.214844 119.652344 C 147.40625 119.652344 144.597656 119.652344 141.792969 119.652344 C 141.792969 117.105469 141.792969 114.5625 141.792969 112.019531 Z M 135.070312 124.542969 C 136.496094 124.542969 137.917969 124.542969 139.347656 124.542969 C 149.191406 124.542969 159.042969 124.542969 168.886719 124.542969 C 171.527344 124.542969 174.164062 124.542969 176.800781 124.542969 C 178.90625 124.542969 181.007812 124.542969 183.113281 124.542969 C 194.082031 124.542969 205.046875 124.542969 216.015625 124.542969 C 219.636719 124.542969 223.257812 124.542969 226.882812 124.542969 C 227.097656 124.542969 227.308594 124.542969 227.523438 124.542969 C 228.734375 124.542969 229.945312 124.542969 231.15625 124.542969 C 230.304688 129.203125 227.085938 133.34375 222.621094 135.121094 C 219.976562 136.171875 216.671875 136.261719 214.097656 134.949219 C 212.890625 134.335938 211.75 133.515625 210.59375 132.804688 C 208.863281 131.746094 207.132812 130.6875 205.398438 129.628906 C 204.511719 129.082031 203.511719 128.230469 202.480469 127.953125 C 201.289062 127.628906 199.984375 128.492188 198.933594 128.996094 C 197.289062 129.785156 195.644531 130.574219 194.003906 131.363281 C 191.414062 132.605469 188.679688 134.332031 185.929688 135.09375 C 181.675781 136.265625 178.625 134.433594 174.984375 132.6875 C 171.953125 131.238281 168.945312 129.738281 165.894531 128.328125 C 163.320312 127.140625 160.515625 129.816406 158.382812 131.121094 C 154.5625 133.460938 151.046875 136.441406 146.257812 135.816406 C 140.523438 135.066406 136.101562 130.074219 135.070312 124.542969 Z M 207.292969 136.527344 C 203.039062 136.527344 198.789062 136.527344 194.539062 136.527344 C 194.949219 136.324219 195.363281 136.121094 195.773438 135.925781 C 197.746094 134.976562 199.714844 134.035156 201.683594 133.089844 C 203.460938 134.175781 205.234375 135.261719 207.007812 136.347656 C 207.105469 136.40625 207.199219 136.464844 207.292969 136.527344 Z M 171.664062 136.527344 C 167.421875 136.527344 163.179688 136.527344 158.933594 136.527344 C 159.027344 136.464844 159.125 136.410156 159.21875 136.347656 C 160.992188 135.261719 162.765625 134.175781 164.542969 133.089844 C 166.914062 134.234375 169.289062 135.382812 171.664062 136.527344 Z M 226.257812 149.046875 C 216.617188 149.046875 206.980469 149.046875 197.339844 149.046875 C 195.738281 149.046875 194.140625 149.046875 192.542969 149.046875 C 178.433594 149.046875 164.324219 149.046875 150.214844 149.046875 C 148.277344 149.046875 146.339844 149.046875 144.402344 149.046875 C 142.71875 149.046875 141.03125 149.046875 139.347656 149.046875 C 139.347656 149.046875 139.347656 149.046875 139.34375 149.046875 C 139.332031 149.046875 139.320312 149.046875 139.304688 149.046875 C 136.300781 149.03125 133.515625 146.277344 135.40625 143.234375 C 136.554688 141.390625 138.394531 141.414062 140.257812 141.414062 C 142.339844 141.414062 144.421875 141.414062 146.5 141.414062 C 163.105469 141.414062 179.714844 141.414062 196.320312 141.414062 C 203.757812 141.414062 211.199219 141.414062 218.640625 141.414062 C 220.683594 141.414062 222.722656 141.414062 224.761719 141.414062 C 226.734375 141.414062 228.730469 141.5 229.71875 143.628906 C 230.910156 146.1875 228.96875 148.933594 226.257812 149.046875 Z M 226.257812 149.046875 " fill-opacity="1" fill-rule="nonzero"/></g><g fill="#ff9a00" fill-opacity="1"><g transform="translate(53.227637, 237.878805)"><g><path d="M 28.289062 -9.5 L 28.289062 -17.664062 C 28.289062 -19.140625 27.867188 -20.476562 27.09375 -21.535156 C 26.320312 -22.589844 25.191406 -23.433594 23.855469 -23.925781 C 25.335938 -24.347656 26.460938 -25.121094 27.234375 -26.25 C 27.9375 -27.304688 28.289062 -28.640625 28.289062 -30.121094 L 28.289062 -38.28125 C 28.289062 -39.621094 28.078125 -40.816406 27.585938 -42.011719 C 27.09375 -43.207031 26.390625 -44.195312 25.546875 -45.109375 C 24.628906 -45.953125 23.644531 -46.65625 22.449219 -47.148438 C 21.253906 -47.640625 20.054688 -47.851562 18.71875 -47.851562 L 5.699219 -47.851562 C 4.082031 -47.851562 2.816406 -46.585938 2.816406 -44.96875 L 2.816406 -2.886719 C 2.816406 -1.265625 4.082031 0 5.699219 0 L 18.71875 0 C 20.054688 0 21.253906 -0.28125 22.449219 -0.773438 C 23.644531 -1.265625 24.628906 -1.898438 25.546875 -2.816406 C 26.390625 -3.660156 27.09375 -4.644531 27.585938 -5.839844 C 28.078125 -6.96875 28.289062 -8.164062 28.289062 -9.5 Z M 12.386719 -9.5 L 12.386719 -19.070312 L 18.71875 -19.070312 L 18.71875 -9.5 Z M 12.386719 -28.710938 L 12.386719 -38.28125 L 18.71875 -38.28125 L 18.71875 -28.710938 Z M 12.386719 -28.710938 "/></g></g></g><g fill="#ff9a00" fill-opacity="1"><g transform="translate(87.918898, 237.878805)"><g><path d="M 28.429688 -9.5 L 28.429688 -38.28125 C 28.429688 -39.621094 28.21875 -40.816406 27.726562 -42.011719 C 27.234375 -43.207031 26.53125 -44.195312 25.6875 -45.109375 C 24.769531 -45.953125 23.785156 -46.65625 22.589844 -47.148438 C 21.394531 -47.640625 20.195312 -47.851562 18.859375 -47.851562 L 12.316406 -47.851562 C 10.976562 -47.851562 9.78125 -47.640625 8.65625 -47.148438 C 7.460938 -46.65625 6.472656 -45.953125 5.628906 -45.109375 C 4.714844 -44.195312 4.082031 -43.207031 3.589844 -42.011719 C 3.097656 -40.816406 2.816406 -39.621094 2.816406 -38.28125 L 2.816406 -9.5 C 2.816406 -8.164062 3.097656 -6.96875 3.589844 -5.839844 C 4.082031 -4.644531 4.714844 -3.660156 5.628906 -2.816406 C 6.472656 -1.898438 7.460938 -1.265625 8.65625 -0.773438 C 9.78125 -0.28125 10.976562 0 12.316406 0 L 18.859375 0 C 20.195312 0 21.394531 -0.28125 22.589844 -0.773438 C 23.785156 -1.265625 24.769531 -1.898438 25.6875 -2.816406 C 26.53125 -3.660156 27.234375 -4.644531 27.726562 -5.839844 C 28.21875 -6.96875 28.429688 -8.164062 28.429688 -9.5 Z M 12.386719 -9.5 L 12.386719 -38.28125 L 18.859375 -38.28125 L 18.859375 -9.5 Z M 12.386719 -9.5 "/></g></g></g><g fill="#ff9a00" fill-opacity="1"><g transform="translate(123.45455, 237.878805)"><g><path d="M 28.007812 -19.773438 C 27.585938 -20.832031 26.953125 -21.816406 26.179688 -22.730469 C 26.742188 -23.363281 27.164062 -24.136719 27.585938 -24.980469 C 28.078125 -26.179688 28.289062 -27.375 28.289062 -28.710938 L 28.289062 -38.28125 C 28.289062 -39.621094 28.078125 -40.816406 27.585938 -42.011719 C 27.09375 -43.207031 26.390625 -44.195312 25.546875 -45.109375 C 24.628906 -45.953125 23.644531 -46.65625 22.449219 -47.148438 C 21.253906 -47.640625 20.054688 -47.851562 18.71875 -47.851562 L 5.699219 -47.851562 C 4.082031 -47.851562 2.816406 -46.585938 2.816406 -44.96875 L 2.816406 0 L 12.386719 0 L 12.386719 -19.140625 L 16.46875 -19.140625 L 19.070312 -16.398438 L 19.070312 0 L 28.640625 0 L 28.640625 -16.398438 C 28.640625 -17.59375 28.429688 -18.71875 28.007812 -19.773438 Z M 12.386719 -28.710938 L 12.386719 -38.28125 L 18.71875 -38.28125 L 18.71875 -28.710938 Z M 12.386719 -28.710938 "/></g></g></g><g fill="#ff9a00" fill-opacity="1"><g transform="translate(158.497641, 237.878805)"><g><path d="M 28.289062 -9.5 L 28.289062 -15.902344 L 18.71875 -15.902344 L 18.71875 -9.5 L 12.386719 -9.5 L 12.386719 -38.28125 L 18.71875 -38.28125 L 18.71875 -31.878906 L 28.289062 -31.878906 L 28.289062 -38.28125 C 28.289062 -39.621094 28.078125 -40.816406 27.585938 -42.011719 C 27.09375 -43.207031 26.390625 -44.195312 25.546875 -45.109375 C 24.628906 -45.953125 23.644531 -46.65625 22.449219 -47.148438 C 21.253906 -47.640625 20.054688 -47.851562 18.71875 -47.851562 L 12.386719 -47.851562 C 11.046875 -47.851562 9.851562 -47.640625 8.65625 -47.148438 C 7.460938 -46.65625 6.472656 -45.953125 5.628906 -45.109375 C 4.714844 -44.195312 4.082031 -43.207031 3.589844 -42.011719 C 3.097656 -40.816406 2.816406 -39.621094 2.816406 -38.28125 L 2.816406 -9.5 C 2.816406 -8.164062 3.097656 -6.96875 3.589844 -5.839844 C 4.082031 -4.644531 4.714844 -3.660156 5.628906 -2.816406 C 6.472656 -1.898438 7.460938 -1.265625 8.65625 -0.773438 C 9.851562 -0.28125 11.046875 0 12.386719 0 L 18.71875 0 C 20.054688 0 21.253906 -0.28125 22.449219 -0.773438 C 23.644531 -1.265625 24.628906 -1.898438 25.546875 -2.816406 C 26.390625 -3.660156 27.09375 -4.644531 27.585938 -5.839844 C 28.078125 -6.96875 28.289062 -8.164062 28.289062 -9.5 Z M 28.289062 -9.5 "/></g></g></g><g fill="#ff9a00" fill-opacity="1"><g transform="translate(193.188905, 237.878805)"><g><path d="M 25.335938 -9.570312 L 12.386719 -9.570312 L 12.386719 -19.140625 L 25.335938 -19.140625 L 25.335938 -28.710938 L 12.386719 -28.710938 L 12.386719 -38.28125 L 25.335938 -38.28125 L 25.335938 -47.851562 L 5.699219 -47.851562 C 4.082031 -47.851562 2.816406 -46.585938 2.816406 -44.96875 L 2.816406 -2.886719 C 2.816406 -1.265625 4.082031 0 5.699219 0 L 25.335938 0 Z M 25.335938 -9.570312 "/></g></g></g><g fill="#ff9a00" fill-opacity="1"><g transform="translate(225.62843, 237.878805)"><g><path d="M 23.292969 -9.570312 L 12.386719 -9.570312 L 12.386719 -47.851562 L 2.816406 -47.851562 L 2.816406 -2.886719 C 2.816406 -1.265625 4.082031 0 5.699219 0 L 23.292969 0 Z M 23.292969 -9.570312 "/></g></g></g><g fill="#ff9a00" fill-opacity="1"><g transform="translate(255.323645, 237.878805)"><g><path d="M 23.292969 -9.570312 L 12.386719 -9.570312 L 12.386719 -47.851562 L 2.816406 -47.851562 L 2.816406 -2.886719 C 2.816406 -1.265625 4.082031 0 5.699219 0 L 23.292969 0 Z M 23.292969 -9.570312 "/></g></g></g><g fill="#ff9a00" fill-opacity="1"><g transform="translate(285.018848, 237.878805)"><g><path d="M 25.335938 -9.570312 L 12.386719 -9.570312 L 12.386719 -19.140625 L 25.335938 -19.140625 L 25.335938 -28.710938 L 12.386719 -28.710938 L 12.386719 -38.28125 L 25.335938 -38.28125 L 25.335938 -47.851562 L 5.699219 -47.851562 C 4.082031 -47.851562 2.816406 -46.585938 2.816406 -44.96875 L 2.816406 -2.886719 C 2.816406 -1.265625 4.082031 0 5.699219 0 L 25.335938 0 Z M 25.335938 -9.570312 "/></g></g></g></svg>